<?xml version="1.0" standalone="no"?>
<!DOCTYPE svg PUBLIC "-//W3C//DTD SVG 20010904//EN"
 "http://www.w3.org/TR/2001/REC-SVG-20010904/DTD/svg10.dtd">
<svg version="1.0" xmlns="http://www.w3.org/2000/svg"
 width="235.000000pt" height="235.000000pt" viewBox="0 0 235.000000 235.000000"
 preserveAspectRatio="xMidYMid meet">
<metadata>
Created by potrace 1.11, written by Peter Selinger 2001-2013
</metadata>
<g transform="translate(0.000000,235.000000) scale(0.100000,-0.100000)"
fill="#000000" stroke="none">
<path d="M870 1175 l0 -1175 300 0 300 0 0 1175 0 1175 -300 0 -300 0 0 -1175z"/>
<path d="M172 1706 c-6 -11 -10 -1673 -4 -1693 3 -10 72 -13 301 -13 l297 0
-1 857 0 858 -293 0 c-178 0 -296 -4 -300 -9z"/>
<path d="M1615 730 l-40 -5 1 -350 c1 -192 2 -356 3 -363 1 -10 64 -12 299
-10 l297 3 1 363 c1 328 0 362 -15 363 -93 3 -515 3 -546 -1z"/>
</g>
</svg>
